<?xml version="1.0" encoding="UTF-8" standalone="no"?>
<!-- Created with Inkscape (http://www.inkscape.org/) -->

<svg
   xmlns:dc="http://purl.org/dc/elements/1.1/"
   xmlns:cc="http://creativecommons.org/ns#"
   xmlns:rdf="http://www.w3.org/1999/02/22-rdf-syntax-ns#"
   xmlns:svg="http://www.w3.org/2000/svg"
   xmlns="http://www.w3.org/2000/svg"
   version="1.1"
   width="48"
   height="48"
   id="svg3103">
  <defs
     id="defs3105">
    <mask
       id="mask3797">
      <g
         transform="translate(-0.011393,0.011393)"
         id="g3799">
        <rect
           width="48"
           height="48"
           x="0"
           y="-16"
           id="rect3801"
           style="fill:#ffffff;fill-opacity:1;fill-rule:nonzero;stroke:none" />
        <g
           id="g3803"
           style="fill:#000000;fill-opacity:1;stroke:#000000;stroke-opacity:1">
          <path
             d="m 13.33171,8.6333557 c -1.245459,0 -2.354773,0.623759 -3.03125,1.5625003 -0.168539,-0.03449 -0.3212649,-0.03125 -0.4999997,-0.03125 -1.4298784,0 -2.59375,1.132622 -2.59375,2.5625 0,1.429878 1.1638716,2.59375 2.59375,2.59375 0.3574697,0 0.6902537,-0.05649 0.9999997,-0.1875 0.0061,0.0056 0.02511,-0.0055 0.03125,0 0.65973,0.592584 1.5434,0.96875 2.5,0.96875 0.303047,0 0.592939,-0.05672 0.875,-0.125 0.358822,0.445362 0.914799,0.75 1.53125,0.75 1.081128,0 1.9375,-0.887622 1.9375,-1.96875 0,-0.619784 -0.269239,-1.17257 -0.71875,-1.53125 0.0675,-0.280543 0.09375,-0.573742 0.09375,-0.875 0,-2.05763 -1.66112,-3.7187503 -3.71875,-3.7187503 z"
             id="path3805"
             style="fill:#000000;fill-opacity:1;stroke:#000000;stroke-opacity:1" />
          <path
             d="m 40.162917,-4.3578937 c -1.027539,0 -1.959873,0.412204 -2.625,1.09375 -0.528127,-0.227411 -1.107243,-0.34375 -1.71875,-0.34375 -1.503988,0 -2.841991,0.747244 -3.625,1.90625 -0.158679,-0.024558 -0.334441,-0.03125 -0.5,-0.03125 -1.743754,0 -3.15625,1.41249604 -3.15625,3.15625 0,1.743754 1.412496,3.15625 3.15625,3.15625 0.54016,0 1.055406,-0.135917 1.5,-0.375 0.731409,0.555565 1.635664,0.90625 2.625,0.90625 1.617443,0 2.998261,-0.910133 3.75,-2.21875 0.191779,0.031008 0.393218,0.0625 0.59375,0.0625 2.022755,0 3.65625,-1.633495 3.65625,-3.65624996 0,-2.02275504 -1.633495,-3.65625004 -3.65625,-3.65625004 z"
             id="path3807"
             style="fill:#000000;fill-opacity:1;stroke:#000000;stroke-opacity:1" />
        </g>
      </g>
    </mask>
  </defs>
  <metadata
     id="metadata3108">
    <rdf:RDF>
      <cc:Work
         rdf:about="">
        <dc:format>image/svg+xml</dc:format>
        <dc:type
           rdf:resource="http://purl.org/dc/dcmitype/StillImage" />
        <dc:title></dc:title>
      </cc:Work>
    </rdf:RDF>
  </metadata>
  <g
     transform="translate(0,16)"
     id="layer1">
    <g
       transform="translate(0.011393,-0.011393)"
       mask="url(#mask3797)"
       id="g2991">
      <path
         d="m 42.434734,27.414103 a 15.028969,15.028969 0 1 1 -30.057937,0 15.028969,15.028969 0 1 1 30.057937,0 z"
         transform="matrix(0.59884348,0,0,0.59884348,7.588236,-8.4167565)"
         id="path2990"
         style="fill:none;stroke:#fffc00;stroke-width:3.33977079;stroke-miterlimit:4;stroke-opacity:1;stroke-dasharray:none" />
      <path
         d="M 24,-13.977214 24,-4"
         id="path3760"
         style="fill:none;stroke:#fffc00;stroke-width:2;stroke-linecap:butt;stroke-linejoin:miter;stroke-miterlimit:4;stroke-opacity:1;stroke-dasharray:none" />
      <path
         d="M 24,20.022786 24,30"
         id="path3760-0"
         style="fill:none;stroke:#fffc00;stroke-width:2;stroke-linecap:butt;stroke-linejoin:miter;stroke-miterlimit:4;stroke-opacity:1;stroke-dasharray:none" />
      <path
         d="M 14.054956,15.945044 7,23"
         id="path3760-0-2"
         style="fill:none;stroke:#fffc00;stroke-width:2;stroke-linecap:butt;stroke-linejoin:miter;stroke-miterlimit:4;stroke-opacity:1;stroke-dasharray:none" />
      <path
         d="M 40.054999,-8.054956 32.999999,-1"
         id="path3760-0-2-1"
         style="fill:none;stroke:#fffc00;stroke-width:2;stroke-linecap:butt;stroke-linejoin:miter;stroke-miterlimit:4;stroke-opacity:1;stroke-dasharray:none" />
      <path
         d="M 40.054956,23 33,15.945"
         id="path3760-0-2-1-1"
         style="fill:none;stroke:#fffc00;stroke-width:2;stroke-linecap:butt;stroke-linejoin:miter;stroke-miterlimit:4;stroke-opacity:1;stroke-dasharray:none" />
      <path
         d="M 14.054956,-1 7,-8.055"
         id="path3760-0-2-1-1-0"
         style="fill:none;stroke:#fffc00;stroke-width:2;stroke-linecap:butt;stroke-linejoin:miter;stroke-miterlimit:4;stroke-opacity:1;stroke-dasharray:none" />
      <path
         d="M 11.977214,8 2,8"
         id="path3760-0-0"
         style="fill:none;stroke:#fffc00;stroke-width:2;stroke-linecap:butt;stroke-linejoin:miter;stroke-miterlimit:4;stroke-opacity:1;stroke-dasharray:none" />
      <path
         d="M 45.977214,8 36,8"
         id="path3760-0-0-3"
         style="fill:none;stroke:#fffc00;stroke-width:2;stroke-linecap:butt;stroke-linejoin:miter;stroke-miterlimit:4;stroke-opacity:1;stroke-dasharray:none" />
    </g>
    <g
       id="g3009"
       style="stroke:#e1e1e1;stroke-opacity:1">
      <path
         d="m 13.33171,8.6333557 c -1.245459,0 -2.354773,0.623759 -3.03125,1.5625003 -0.168539,-0.03449 -0.3212649,-0.03125 -0.4999997,-0.03125 -1.4298784,0 -2.59375,1.132622 -2.59375,2.5625 0,1.429878 1.1638716,2.59375 2.59375,2.59375 0.3574697,0 0.6902537,-0.05649 0.9999997,-0.1875 0.0061,0.0056 0.02511,-0.0055 0.03125,0 0.65973,0.592584 1.5434,0.96875 2.5,0.96875 0.303047,0 0.592939,-0.05672 0.875,-0.125 0.358822,0.445362 0.914799,0.75 1.53125,0.75 1.081128,0 1.9375,-0.887622 1.9375,-1.96875 0,-0.619784 -0.269239,-1.17257 -0.71875,-1.53125 0.0675,-0.280543 0.09375,-0.573742 0.09375,-0.875 0,-2.05763 -1.66112,-3.7187503 -3.71875,-3.7187503 z"
         id="path3791"
         style="fill:none;stroke:#e1e1e1;stroke-opacity:1" />
      <path
         d="m 40.162917,-4.3578937 c -1.027539,0 -1.959873,0.412204 -2.625,1.09375 -0.528127,-0.227411 -1.107243,-0.34375 -1.71875,-0.34375 -1.503988,0 -2.841991,0.747244 -3.625,1.90625 -0.158679,-0.024558 -0.334441,-0.03125 -0.5,-0.03125 -1.743754,0 -3.15625,1.41249604 -3.15625,3.15625 0,1.743754 1.412496,3.15625 3.15625,3.15625 0.54016,0 1.055406,-0.135917 1.5,-0.375 0.731409,0.555565 1.635664,0.90625 2.625,0.90625 1.617443,0 2.998261,-0.910133 3.75,-2.21875 0.191779,0.031008 0.393218,0.0625 0.59375,0.0625 2.022755,0 3.65625,-1.633495 3.65625,-3.65624996 0,-2.02275504 -1.633495,-3.65625004 -3.65625,-3.65625004 z"
         id="path3783"
         style="fill:none;stroke:#e1e1e1;stroke-opacity:1" />
    </g>
  </g>
</svg>
