<?xml version="1.0" encoding="UTF-8" standalone="no"?>
<!-- Created with Inkscape (http://www.inkscape.org/) -->

<svg
   xmlns:dc="http://purl.org/dc/elements/1.1/"
   xmlns:cc="http://creativecommons.org/ns#"
   xmlns:rdf="http://www.w3.org/1999/02/22-rdf-syntax-ns#"
   xmlns:svg="http://www.w3.org/2000/svg"
   xmlns="http://www.w3.org/2000/svg"
   xmlns:sodipodi="http://sodipodi.sourceforge.net/DTD/sodipodi-0.dtd"
   xmlns:inkscape="http://www.inkscape.org/namespaces/inkscape"
   width="48"
   height="48"
   id="svg3103"
   version="1.1"
   inkscape:version="0.48.4 r9939"
   sodipodi:docname="hi_shwrs.svg">
  <defs
     id="defs3105" />
  <sodipodi:namedview
     id="base"
     pagecolor="#ffffff"
     bordercolor="#666666"
     borderopacity="1.0"
     inkscape:pageopacity="0.0"
     inkscape:pageshadow="2"
     inkscape:zoom="11.197802"
     inkscape:cx="22.57544"
     inkscape:cy="24.544941"
     inkscape:current-layer="layer1"
     showgrid="true"
     inkscape:grid-bbox="true"
     inkscape:document-units="px"
     inkscape:window-width="1038"
     inkscape:window-height="783"
     inkscape:window-x="411"
     inkscape:window-y="114"
     inkscape:window-maximized="0" />
  <metadata
     id="metadata3108">
    <rdf:RDF>
      <cc:Work
         rdf:about="">
        <dc:format>image/svg+xml</dc:format>
        <dc:type
           rdf:resource="http://purl.org/dc/dcmitype/StillImage" />
        <dc:title></dc:title>
      </cc:Work>
    </rdf:RDF>
  </metadata>
  <g
     id="layer1"
     inkscape:label="Layer 1"
     inkscape:groupmode="layer"
     transform="translate(0,16)">
    <path
       style="fill:none;stroke:#5e5e5e;stroke-opacity:1"
       d="m 23.162917,-14.362368 c -3.103883,0 -5.59375,2.521117 -5.59375,5.6250002 0,0.102101 -0.0054,0.211739 0,0.3125 -0.416962,-0.062208 -0.846968,-0.125 -1.28125,-0.125 -4.509773,0 -8.1784682,3.487232 -8.5312502,7.90624982 -0.1849324,-0.02509 -0.370687,-0.0625 -0.5625,-0.0625 -2.3017555,0 -4.15625,1.85449498 -4.15625,4.15624998 0,2.301755 1.8544945,4.1875 4.15625,4.1875 1.251934,0 2.3610338,-0.563604 3.1250002,-1.4375 1.546023,1.49896 3.64528,2.4375 5.96875,2.4375 0.592876,0 1.190943,-0.0731 1.75,-0.1875 1.689496,3.618338 5.368104,6.125 9.625,6.125 2.985472,0 5.665967,-1.265183 7.59375,-3.25 0.697515,0.213865 1.419909,0.34375 2.1875,0.34375 4.150135,0 7.53125,-3.381115 7.53125,-7.53125 0,-3.89075198 -2.960776,-7.0839328 -6.75,-7.4687498 0.182658,-0.587263 0.28125,-1.227631 0.28125,-1.875 0,-3.452633 -2.797367,-6.2500002 -6.25,-6.2500002 -1.374872,0 -2.624157,0.466555 -3.65625,1.21875 -0.659807,-2.370274 -2.856903,-4.125 -5.4375,-4.125 z"
       id="path4508"
       inkscape:connector-curvature="0" />
    <path
       style="fill:none;stroke:#6af6ff;stroke-width:0.59769768px;stroke-linecap:butt;stroke-linejoin:miter;stroke-opacity:1"
       d="m 19.007564,17.063814 c 0,0 -2.910856,2.472126 -3.880578,3.735755 -0.969724,1.263629 -1.116013,2.573854 -0.292874,2.848051 0.823139,0.274196 2.16315,-0.837781 2.782301,-2.256248 0.61915,-1.418468 1.391151,-4.327558 1.391151,-4.327558 z"
       id="path2984"
       inkscape:connector-curvature="0"
       sodipodi:nodetypes="czzzc" />
    <path
       style="fill:none;stroke:#6af6ff;stroke-width:0.52473933px;stroke-linecap:butt;stroke-linejoin:miter;stroke-opacity:1"
       d="m 11.631276,12.601028 c 0,0 -2.6619435,2.257787 -3.548744,3.411857 -0.8868005,1.15407 -1.0205807,2.350696 -0.2678295,2.601119 0.7527516,0.250423 1.9781764,-0.765143 2.5443825,-2.060627 0.566205,-1.295483 1.272191,-3.952349 1.272191,-3.952349 z"
       id="path2984-3"
       inkscape:connector-curvature="0"
       sodipodi:nodetypes="czzzc" />
    <path
       style="fill:none;stroke:#6af6ff;stroke-width:0.59769768px;stroke-linecap:butt;stroke-linejoin:miter;stroke-opacity:1"
       d="m 27.538208,16.363355 c 0,0 -2.910856,2.472126 -3.880578,3.735755 -0.969724,1.263629 -1.116013,2.573854 -0.292874,2.848051 0.823139,0.274196 2.16315,-0.837781 2.782301,-2.256248 0.61915,-1.418468 1.391151,-4.327558 1.391151,-4.327558 z"
       id="path2984-4"
       inkscape:connector-curvature="0"
       sodipodi:nodetypes="czzzc" />
    <path
       style="fill:none;stroke:#6af6ff;stroke-width:0.59769768px;stroke-linecap:butt;stroke-linejoin:miter;stroke-opacity:1"
       d="m 37.18296,18.595936 c 0,0 -2.910856,2.472126 -3.880578,3.735755 -0.969724,1.263629 -1.116013,2.573854 -0.292874,2.848051 0.823139,0.274196 2.16315,-0.837781 2.782301,-2.256248 0.61915,-1.418468 1.391151,-4.327558 1.391151,-4.327558 z"
       id="path2984-5"
       inkscape:connector-curvature="0"
       sodipodi:nodetypes="czzzc" />
    <path
       style="fill:none;stroke:#6af6ff;stroke-width:0.59769768px;stroke-linecap:butt;stroke-linejoin:miter;stroke-opacity:1"
       d="m 10.48129,22.882493 c 0,0 -2.9108559,2.472126 -3.8805779,3.735755 -0.969724,1.263629 -1.116013,2.573853 -0.292874,2.84805 0.823139,0.274196 2.16315,-0.837781 2.782301,-2.256247 0.61915,-1.418468 1.3911509,-4.327558 1.3911509,-4.327558 z"
       id="path2984-8"
       inkscape:connector-curvature="0"
       sodipodi:nodetypes="czzzc" />
    <path
       style="fill:none;stroke:#6af6ff;stroke-width:0.59769768px;stroke-linecap:butt;stroke-linejoin:miter;stroke-opacity:1"
       d="m 29.145667,23.507615 c 0,0 -2.910856,2.472126 -3.880578,3.735755 -0.969724,1.263629 -1.116013,2.573854 -0.292874,2.848051 0.823139,0.274196 2.16315,-0.837781 2.782301,-2.256248 0.61915,-1.418468 1.391151,-4.327558 1.391151,-4.327558 z"
       id="path2984-6"
       inkscape:connector-curvature="0"
       sodipodi:nodetypes="czzzc" />
    <path
       style="fill:none;stroke:#6af6ff;stroke-width:0.59769768px;stroke-linecap:butt;stroke-linejoin:miter;stroke-opacity:1"
       d="m 5.7482179,19.667575 c 0,0 -2.910856,2.472126 -3.880578,3.735755 -0.96972407,1.263629 -1.11601307,2.573854 -0.292874,2.848051 0.823139,0.274196 2.16315,-0.837781 2.782301,-2.256248 0.61915,-1.418468 1.391151,-4.327558 1.391151,-4.327558 z"
       id="path2984-9"
       inkscape:connector-curvature="0"
       sodipodi:nodetypes="czzzc" />
    <path
       style="fill:none;stroke:#6af6ff;stroke-width:0.59769768px;stroke-linecap:butt;stroke-linejoin:miter;stroke-opacity:1"
       d="m 20.66186,23.686221 c 0,0 -2.910856,2.472126 -3.880578,3.735755 -0.969724,1.263629 -1.116013,2.573854 -0.292874,2.848051 0.823139,0.274196 2.16315,-0.837781 2.782301,-2.256248 0.61915,-1.418468 1.391151,-4.327558 1.391151,-4.327558 z"
       id="path2984-61"
       inkscape:connector-curvature="0"
       sodipodi:nodetypes="czzzc" />
    <path
       style="fill:none;stroke:#6af6ff;stroke-width:0.59769768px;stroke-linecap:butt;stroke-linejoin:miter;stroke-opacity:1"
       d="m 45.130947,14.666594 c 0,0 -2.910856,2.472126 -3.880578,3.735755 -0.969724,1.263629 -1.116013,2.573854 -0.292874,2.848051 0.823139,0.274196 2.16315,-0.837781 2.782301,-2.256248 0.61915,-1.418468 1.391151,-4.327558 1.391151,-4.327558 z"
       id="path2984-66"
       inkscape:connector-curvature="0"
       sodipodi:nodetypes="czzzc" />
    <path
       style="fill:none;stroke:#6af6ff;stroke-width:0.59769768px;stroke-linecap:butt;stroke-linejoin:miter;stroke-opacity:1"
       d="m 39.504843,23.775524 c 0,0 -2.910856,2.472126 -3.880578,3.735755 -0.969724,1.263629 -1.116013,2.573854 -0.292874,2.848051 0.823139,0.274196 2.16315,-0.837781 2.782301,-2.256248 0.61915,-1.418468 1.391151,-4.327558 1.391151,-4.327558 z"
       id="path2984-39"
       inkscape:connector-curvature="0"
       sodipodi:nodetypes="czzzc" />
    <path
       style="fill:none;stroke:#6af6ff;stroke-width:0.59769768px;stroke-linecap:butt;stroke-linejoin:miter;stroke-opacity:1"
       d="m 46.291889,22.168067 c 0,0 -2.910856,2.472126 -3.880578,3.735755 -0.969724,1.263629 -1.116013,2.573854 -0.292874,2.848051 0.823139,0.274196 2.16315,-0.837781 2.782301,-2.256248 0.61915,-1.418468 1.391151,-4.327558 1.391151,-4.327558 z"
       id="path2984-56"
       inkscape:connector-curvature="0"
       sodipodi:nodetypes="czzzc" />
    <path
       style="fill:none;stroke:#6af6ff;stroke-width:0.59769768px;stroke-linecap:butt;stroke-linejoin:miter;stroke-opacity:1"
       d="m 6.2840381,9.4870063 c 0,0 -2.910856,2.4721257 -3.880578,3.7357547 -0.969724,1.263629 -1.116013,2.573854 -0.292874,2.848051 0.823139,0.274196 2.16315,-0.837781 2.782301,-2.256248 0.61915,-1.418468 1.391151,-4.3275577 1.391151,-4.3275577 z"
       id="path2984-567"
       inkscape:connector-curvature="0"
       sodipodi:nodetypes="czzzc" />
    <path
       style="fill:none;stroke:#6af6ff;stroke-width:0.59769768px;stroke-linecap:butt;stroke-linejoin:miter;stroke-opacity:1"
       d="m 17.35764,11.630284 c 0,0 -2.910856,2.472126 -3.880578,3.735755 -0.969725,1.263629 -1.116014,2.573854 -0.292875,2.848051 0.82314,0.274196 2.163151,-0.837781 2.782302,-2.256248 0.61915,-1.418468 1.391151,-4.327558 1.391151,-4.327558 z"
       id="path2984-1"
       inkscape:connector-curvature="0"
       sodipodi:nodetypes="czzzc" />
    <path
       style="fill:none;stroke:#6af6ff;stroke-width:0.59769768px;stroke-linecap:butt;stroke-linejoin:miter;stroke-opacity:1"
       d="m 34.235952,14.30938 c 0,0 -2.910856,2.472126 -3.880578,3.735755 -0.969724,1.263629 -1.116013,2.573854 -0.292874,2.848051 0.823139,0.274196 2.16315,-0.837781 2.782301,-2.256248 0.61915,-1.418468 1.391151,-4.327558 1.391151,-4.327558 z"
       id="path2984-0"
       inkscape:connector-curvature="0"
       sodipodi:nodetypes="czzzc" />
  </g>
</svg>
