<?xml version="1.0" encoding="UTF-8" standalone="no"?>
<!-- Created with Inkscape (http://www.inkscape.org/) -->

<svg
   xmlns:dc="http://purl.org/dc/elements/1.1/"
   xmlns:cc="http://creativecommons.org/ns#"
   xmlns:rdf="http://www.w3.org/1999/02/22-rdf-syntax-ns#"
   xmlns:svg="http://www.w3.org/2000/svg"
   xmlns="http://www.w3.org/2000/svg"
   version="1.1"
   width="48"
   height="48"
   id="svg3103">
  <defs
     id="defs3105">
    <mask
       id="mask5457">
      <g
         transform="matrix(1.9966959,0,0,1.9966959,-8.0241795,23.914649)"
         id="g5459">
        <rect
           width="48"
           height="48"
           x="0"
           y="-16"
           id="rect5461"
           style="fill:#ffffff;fill-opacity:1;fill-rule:nonzero;stroke:none" />
        <path
           d="m 24.552149,-3.1222148 c -3.103883,0 -5.59375,2.52111702 -5.59375,5.625 0,0.102101 -0.0054,0.211739 0,0.3125 -0.416962,-0.062208 -0.846968,-0.125 -1.28125,-0.125 -4.509773,0 -8.1784678,3.487232 -8.5312498,7.9062498 -0.1849324,-0.02509 -0.370687,-0.0625 -0.5625,-0.0625 -2.3017555,0 -4.15625,1.854495 -4.15625,4.15625 0,2.301755 1.8544945,4.1875 4.15625,4.1875 1.251934,0 2.3610338,-0.563604 3.1249998,-1.4375 1.546023,1.49896 3.64528,2.4375 5.96875,2.4375 0.592876,0 1.190943,-0.0731 1.75,-0.1875 1.689496,3.618338 5.368104,6.125 9.625,6.125 2.985472,0 5.665967,-1.265183 7.59375,-3.25 0.697515,0.213865 1.419909,0.34375 2.1875,0.34375 4.150135,0 7.53125,-3.381115 7.53125,-7.53125 0,-3.890752 -2.960776,-7.0839328 -6.75,-7.4687498 0.182658,-0.587263 0.28125,-1.227631 0.28125,-1.875 0,-3.452633 -2.797367,-6.24999998 -6.25,-6.24999998 -1.374872,0 -2.624157,0.466555 -3.65625,1.21874998 -0.659807,-2.370274 -2.856903,-4.125 -5.4375,-4.125 z"
           id="path5463"
           style="fill:#000000;fill-opacity:1;stroke:#000000;stroke-width:0.50082737;stroke-opacity:1" />
      </g>
    </mask>
  </defs>
  <metadata
     id="metadata3108">
    <rdf:RDF>
      <cc:Work
         rdf:about="">
        <dc:format>image/svg+xml</dc:format>
        <dc:type
           rdf:resource="http://purl.org/dc/dcmitype/StillImage" />
        <dc:title></dc:title>
      </cc:Work>
    </rdf:RDF>
  </metadata>
  <g
     transform="translate(0,16)"
     id="layer1">
    <path
       d="m 24.552149,-3.1222148 c -3.103883,0 -5.59375,2.52111702 -5.59375,5.625 0,0.102101 -0.0054,0.211739 0,0.3125 -0.416962,-0.062208 -0.846968,-0.125 -1.28125,-0.125 -4.509773,0 -8.1784678,3.487232 -8.5312498,7.9062498 -0.1849324,-0.02509 -0.370687,-0.0625 -0.5625,-0.0625 -2.3017555,0 -4.15625,1.854495 -4.15625,4.15625 0,2.301755 1.8544945,4.1875 4.15625,4.1875 1.251934,0 2.3610338,-0.563604 3.1249998,-1.4375 1.546023,1.49896 3.64528,2.4375 5.96875,2.4375 0.592876,0 1.190943,-0.0731 1.75,-0.1875 1.689496,3.618338 5.368104,6.125 9.625,6.125 2.985472,0 5.665967,-1.265183 7.59375,-3.25 0.697515,0.213865 1.419909,0.34375 2.1875,0.34375 4.150135,0 7.53125,-3.381115 7.53125,-7.53125 0,-3.890752 -2.960776,-7.0839328 -6.75,-7.4687498 0.182658,-0.587263 0.28125,-1.227631 0.28125,-1.875 0,-3.452633 -2.797367,-6.24999998 -6.25,-6.24999998 -1.374872,0 -2.624157,0.466555 -3.65625,1.21874998 -0.659807,-2.370274 -2.856903,-4.125 -5.4375,-4.125 z"
       id="path4508"
       style="fill:none;stroke:#5e5e5e;stroke-opacity:1" />
    <path
       d="m 42.434734,27.414103 a 15.028969,15.028969 0 1 1 -30.057937,0 15.028969,15.028969 0 1 1 30.057937,0 z"
       transform="matrix(0.50082738,0,0,0.50082738,4.0187288,-11.977111)"
       mask="url(#mask5457)"
       id="path2990"
       style="fill:none;stroke:#d5d5d5;stroke-width:3.99339199;stroke-linecap:butt;stroke-linejoin:miter;stroke-miterlimit:4;stroke-opacity:1;stroke-dasharray:none" />
  </g>
</svg>
