<?xml version="1.0" encoding="UTF-8" standalone="no"?>
<!-- Created with Inkscape (http://www.inkscape.org/) -->

<svg
   xmlns:dc="http://purl.org/dc/elements/1.1/"
   xmlns:cc="http://creativecommons.org/ns#"
   xmlns:rdf="http://www.w3.org/1999/02/22-rdf-syntax-ns#"
   xmlns:svg="http://www.w3.org/2000/svg"
   xmlns="http://www.w3.org/2000/svg"
   xmlns:sodipodi="http://sodipodi.sourceforge.net/DTD/sodipodi-0.dtd"
   xmlns:inkscape="http://www.inkscape.org/namespaces/inkscape"
   width="48"
   height="48"
   id="svg3103"
   version="1.1"
   inkscape:version="0.48.4 r9939"
   sodipodi:docname="mix.svg">
  <defs
     id="defs3105" />
  <sodipodi:namedview
     id="base"
     pagecolor="#ffffff"
     bordercolor="#666666"
     borderopacity="1.0"
     inkscape:pageopacity="0.0"
     inkscape:pageshadow="2"
     inkscape:zoom="11.197802"
     inkscape:cx="22.754046"
     inkscape:cy="22.995102"
     inkscape:current-layer="layer1"
     showgrid="true"
     inkscape:grid-bbox="true"
     inkscape:document-units="px"
     inkscape:window-width="1038"
     inkscape:window-height="783"
     inkscape:window-x="412"
     inkscape:window-y="104"
     inkscape:window-maximized="0" />
  <metadata
     id="metadata3108">
    <rdf:RDF>
      <cc:Work
         rdf:about="">
        <dc:format>image/svg+xml</dc:format>
        <dc:type
           rdf:resource="http://purl.org/dc/dcmitype/StillImage" />
        <dc:title></dc:title>
      </cc:Work>
    </rdf:RDF>
  </metadata>
  <g
     id="layer1"
     inkscape:label="Layer 1"
     inkscape:groupmode="layer"
     transform="translate(0,16)">
    <path
       style="fill:none;stroke:#5e5e5e;stroke-opacity:1"
       d="m 23.162917,-14.362368 c -3.103883,0 -5.59375,2.521117 -5.59375,5.6250002 0,0.102101 -0.0054,0.211739 0,0.3125 -0.416962,-0.062208 -0.846968,-0.125 -1.28125,-0.125 -4.509773,0 -8.1784682,3.487232 -8.5312502,7.90624982 -0.1849324,-0.02509 -0.370687,-0.0625 -0.5625,-0.0625 -2.3017555,0 -4.15625,1.85449498 -4.15625,4.15624998 0,2.301755 1.8544945,4.1875 4.15625,4.1875 1.251934,0 2.3610338,-0.563604 3.1250002,-1.4375 1.546023,1.49896 3.64528,2.4375 5.96875,2.4375 0.592876,0 1.190943,-0.0731 1.75,-0.1875 1.689496,3.618338 5.368104,6.125 9.625,6.125 2.985472,0 5.665967,-1.265183 7.59375,-3.25 0.697515,0.213865 1.419909,0.34375 2.1875,0.34375 4.150135,0 7.53125,-3.381115 7.53125,-7.53125 0,-3.89075198 -2.960776,-7.0839328 -6.75,-7.4687498 0.182658,-0.587263 0.28125,-1.227631 0.28125,-1.875 0,-3.452633 -2.797367,-6.2500002 -6.25,-6.2500002 -1.374872,0 -2.624157,0.466555 -3.65625,1.21875 -0.659807,-2.370274 -2.856903,-4.125 -5.4375,-4.125 z"
       id="path4508"
       inkscape:connector-curvature="0" />
    <path
       style="fill:none;stroke:#65f6ff;stroke-width:1px;stroke-linecap:butt;stroke-linejoin:miter;stroke-opacity:1"
       d="M 8.2007786,9.5848866 10.859274,30.481845 14.928762,10.238572 z"
       id="path3885"
       inkscape:connector-curvature="0"
       sodipodi:nodetypes="cccc" />
    <path
       style="fill:none;stroke:#65f6ff;stroke-width:1px;stroke-linecap:butt;stroke-linejoin:miter;stroke-opacity:1"
       d="m 35.408736,14.496565 4.509815,16.610403 1.518155,-16.789009 z"
       id="path3887"
       inkscape:connector-curvature="0"
       sodipodi:nodetypes="cccc" />
    <g
       id="g6488-0-1-6"
       transform="matrix(0.68640009,-0.16885645,0.16885645,0.68640009,5.5502806,11.189637)">
      <path
         transform="matrix(0.66698115,0,0,0.66698115,6.5317618,6.6154787)"
         d="m 27.326792,28.7105 -4.962511,0.02221 -2.500491,-4.286556 2.462021,-4.308766 4.962511,-0.02221 2.500491,4.286556 z"
         inkscape:randomized="0"
         inkscape:rounded="0"
         inkscape:flatsided="true"
         sodipodi:arg2="1.5663207"
         sodipodi:arg1="1.0427219"
         sodipodi:r2="2.4812806"
         sodipodi:r1="4.9625611"
         sodipodi:cy="24.423944"
         sodipodi:cx="24.826302"
         sodipodi:sides="6"
         id="path6368-9-7-8"
         style="fill:none;stroke:#ffffff;stroke-width:1.69683731;stroke-miterlimit:4;stroke-opacity:1;stroke-dasharray:none"
         sodipodi:type="star" />
      <path
         inkscape:connector-curvature="0"
         id="path6370-03-4-8"
         d="m 26.269122,22.804376 5.304341,0"
         style="fill:none;stroke:#ffffff;stroke-width:1.13175845;stroke-linecap:butt;stroke-linejoin:miter;stroke-miterlimit:4;stroke-opacity:1;stroke-dasharray:none" />
      <path
         inkscape:connector-curvature="0"
         id="path6370-1-992-0-1"
         d="m 14.397499,22.867523 5.304341,0"
         style="fill:none;stroke:#ffffff;stroke-width:1.13175845;stroke-linecap:butt;stroke-linejoin:miter;stroke-miterlimit:4;stroke-opacity:1;stroke-dasharray:none" />
      <path
         inkscape:connector-curvature="0"
         id="path6370-5-2-0-5"
         d="m 24.501008,20.175763 2.652171,-4.593694"
         style="fill:none;stroke:#ffffff;stroke-width:1.13175845;stroke-linecap:butt;stroke-linejoin:miter;stroke-miterlimit:4;stroke-opacity:1;stroke-dasharray:none" />
      <path
         inkscape:connector-curvature="0"
         id="path6370-9-66-0-6"
         d="m 18.817784,30.342418 2.652171,-4.593694"
         style="fill:none;stroke:#ffffff;stroke-width:1.13175845;stroke-linecap:butt;stroke-linejoin:miter;stroke-miterlimit:4;stroke-opacity:1;stroke-dasharray:none" />
      <path
         inkscape:connector-curvature="0"
         id="path6370-0-6-1-8"
         d="m 24.69045,25.685578 2.652169,4.593694"
         style="fill:none;stroke:#ffffff;stroke-width:1.13175845;stroke-linecap:butt;stroke-linejoin:miter;stroke-miterlimit:4;stroke-opacity:1;stroke-dasharray:none" />
      <path
         inkscape:connector-curvature="0"
         id="path6370-0-5-47-3-2"
         d="m 18.944079,15.582069 2.652169,4.593694"
         style="fill:none;stroke:#ffffff;stroke-width:1.13175845;stroke-linecap:butt;stroke-linejoin:miter;stroke-miterlimit:4;stroke-opacity:1;stroke-dasharray:none" />
      <path
         inkscape:connector-curvature="0"
         id="path6429-54-0-4"
         d="m 16.923377,21.099409 0,3.346787"
         style="fill:none;stroke:#ffffff;stroke-width:1.13175845;stroke-linecap:butt;stroke-linejoin:miter;stroke-miterlimit:4;stroke-opacity:1;stroke-dasharray:none" />
      <path
         inkscape:connector-curvature="0"
         id="path6429-4-72-2-6"
         d="m 29.047587,20.941542 0,3.346787"
         style="fill:none;stroke:#ffffff;stroke-width:1.13175845;stroke-linecap:butt;stroke-linejoin:miter;stroke-miterlimit:4;stroke-opacity:1;stroke-dasharray:none" />
      <path
         inkscape:connector-curvature="0"
         id="path6429-5-12-6-3"
         d="m 27.465735,27.145728 -2.898402,1.673393"
         style="fill:none;stroke:#ffffff;stroke-width:1.13175845;stroke-linecap:butt;stroke-linejoin:miter;stroke-miterlimit:4;stroke-opacity:1;stroke-dasharray:none" />
      <path
         inkscape:connector-curvature="0"
         id="path6429-3-4-9-7"
         d="m 21.40363,16.915925 -2.898402,1.673393"
         style="fill:none;stroke:#ffffff;stroke-width:1.13175845;stroke-linecap:butt;stroke-linejoin:miter;stroke-miterlimit:4;stroke-opacity:1;stroke-dasharray:none" />
      <path
         inkscape:connector-curvature="0"
         id="path6429-2-32-3-7"
         d="M 21.466777,29.008561 18.568375,27.335168"
         style="fill:none;stroke:#ffffff;stroke-width:1.13175845;stroke-linecap:butt;stroke-linejoin:miter;stroke-miterlimit:4;stroke-opacity:1;stroke-dasharray:none" />
      <path
         inkscape:connector-curvature="0"
         id="path6429-2-9-7-0-4"
         d="M 27.339441,18.273584 24.441039,16.600191"
         style="fill:none;stroke:#ffffff;stroke-width:1.13175845;stroke-linecap:butt;stroke-linejoin:miter;stroke-miterlimit:4;stroke-opacity:1;stroke-dasharray:none" />
    </g>
  </g>
</svg>
