<?xml version="1.0" encoding="UTF-8" standalone="no"?>
<!-- Created with Inkscape (http://www.inkscape.org/) -->

<svg
   xmlns:dc="http://purl.org/dc/elements/1.1/"
   xmlns:cc="http://creativecommons.org/ns#"
   xmlns:rdf="http://www.w3.org/1999/02/22-rdf-syntax-ns#"
   xmlns:svg="http://www.w3.org/2000/svg"
   xmlns="http://www.w3.org/2000/svg"
   xmlns:sodipodi="http://sodipodi.sourceforge.net/DTD/sodipodi-0.dtd"
   xmlns:inkscape="http://www.inkscape.org/namespaces/inkscape"
   width="48"
   height="48"
   id="svg3103"
   version="1.1"
   inkscape:version="0.48.2 r9819"
   sodipodi:docname="New document 21">
  <defs
     id="defs3105" />
  <sodipodi:namedview
     id="base"
     pagecolor="#ffffff"
     bordercolor="#666666"
     borderopacity="1.0"
     inkscape:pageopacity="0.0"
     inkscape:pageshadow="2"
     inkscape:zoom="7.9180417"
     inkscape:cx="27.343132"
     inkscape:cy="25.099255"
     inkscape:current-layer="layer1"
     showgrid="true"
     inkscape:grid-bbox="true"
     inkscape:document-units="px"
     inkscape:window-width="1081"
     inkscape:window-height="806"
     inkscape:window-x="24"
     inkscape:window-y="104"
     inkscape:window-maximized="0" />
  <metadata
     id="metadata3108">
    <rdf:RDF>
      <cc:Work
         rdf:about="">
        <dc:format>image/svg+xml</dc:format>
        <dc:type
           rdf:resource="http://purl.org/dc/dcmitype/StillImage" />
        <dc:title></dc:title>
      </cc:Work>
    </rdf:RDF>
  </metadata>
  <g
     id="layer1"
     inkscape:label="Layer 1"
     inkscape:groupmode="layer"
     transform="translate(0,16)">
    <path
       style="fill:#6e6e6e;fill-opacity:1;stroke:none"
       d="M 24.627301,1.7764495 1.1366447,5.8178529 2.9047586,9.7329624 23.61695,5.691559 z"
       id="path5216"
       inkscape:connector-curvature="0"
       transform="translate(0,-16)"
       sodipodi:nodetypes="ccccc" />
    <path
       style="fill:#6e6e6e;fill-opacity:1;stroke:none"
       d="M 3.1573463,10.617019 4.9254603,14.91101 22.101425,12.25884 23.616951,7.3333791 z"
       id="path5218"
       inkscape:connector-curvature="0"
       transform="translate(0,-16)"
       sodipodi:nodetypes="ccccc" />
    <path
       style="fill:#6e6e6e;fill-opacity:1;stroke:none"
       d="m 5.0517541,16.047655 1.0103509,2.778464 13.76603,0.126294 2.525877,-4.672872 z"
       id="path5220"
       inkscape:connector-curvature="0"
       transform="translate(0,-16)"
       sodipodi:nodetypes="ccccc" />
    <path
       style="fill:#6e6e6e;fill-opacity:1;stroke:none"
       d="m 6.062105,19.962764 13.76603,1.010351 -3.031052,4.041404 -9.9772149,-2.020702 z"
       id="path5222"
       inkscape:connector-curvature="0"
       transform="translate(0,-16)"
       sodipodi:nodetypes="ccccc" />
    <path
       style="fill:#6e6e6e;fill-opacity:1;stroke:none"
       d="m 6.5672804,24.383049 9.5983326,2.020702 -4.672872,3.536228 -5.5569299,-2.020702 z"
       id="path5224"
       inkscape:connector-curvature="0"
       transform="translate(0,-16)"
       sodipodi:nodetypes="ccccc" />
    <path
       style="fill:#6e6e6e;fill-opacity:1;stroke:none"
       d="M 5.4306357,29.813685 10.861271,31.329211 8.587982,34.360263 5.3043419,33.728795 z"
       id="path5226"
       inkscape:connector-curvature="0"
       transform="translate(0,-16)"
       sodipodi:nodetypes="ccccc" />
    <path
       style="fill:#6e6e6e;fill-opacity:1;stroke:none"
       d="m 5.3043418,35.244321 3.4099341,0.505175 0.8840571,4.546579 -2.1469956,0.884057 z"
       id="path5228"
       inkscape:connector-curvature="0"
       transform="translate(0,-16)"
       sodipodi:nodetypes="ccccc" />
    <path
       style="fill:#6e6e6e;stroke:none;stroke-width:1px;stroke-linecap:butt;stroke-linejoin:miter;stroke-opacity:1;fill-opacity:1"
       d="M 8.8405698,42.695659 14.018618,46.610768 10.356096,41.43272 z"
       id="path5230"
       inkscape:connector-curvature="0"
       transform="translate(0,-16)"
       sodipodi:nodetypes="cccc" />
    <g
       style="font-size:44px;font-style:normal;font-variant:normal;font-weight:normal;font-stretch:normal;line-height:125%;letter-spacing:-3.36999917px;word-spacing:0px;fill:#ff0c0c;fill-opacity:1;stroke:#970000;stroke-width:0.5;stroke-miterlimit:4;stroke-opacity:1;font-family:Droid Sans;-inkscape-font-specification:Droid Sans"
       id="text5232">
      <path
         d="m 28.436115,15.906719 -2.599609,0 -1.095703,-22.5156248 4.791015,0 -1.095703,22.5156248 m -4.060547,6.509766 c -3e-6,-0.544268 0.07161,-1.002601 0.214844,-1.375 0.143226,-0.386715 0.336585,-0.694657 0.580078,-0.923828 0.243486,-0.243485 0.529944,-0.41536 0.859375,-0.515625 0.329422,-0.114578 0.687495,-0.17187 1.074219,-0.171875 0.37239,5e-6 0.723301,0.0573 1.052734,0.171875 0.343743,0.100265 0.637363,0.27214 0.88086,0.515625 0.243481,0.229171 0.43684,0.537113 0.580078,0.923828 0.143221,0.372399 0.214835,0.830732 0.214844,1.375 -9e-6,0.52995 -0.07162,0.988282 -0.214844,1.375 -0.143238,0.372396 -0.336597,0.680339 -0.580078,0.923828 -0.243497,0.243489 -0.537117,0.422526 -0.88086,0.537109 -0.329433,0.114583 -0.680344,0.171875 -1.052734,0.171875 -0.386724,0 -0.744797,-0.05729 -1.074219,-0.171875 -0.329431,-0.114583 -0.615889,-0.29362 -0.859375,-0.537109 -0.243493,-0.243489 -0.436852,-0.551432 -0.580078,-0.923828 -0.143232,-0.386718 -0.214847,-0.84505 -0.214844,-1.375"
         style=""
         id="path5745" />
      <path
         d="m 36.925491,15.906719 -2.599609,0 -1.095703,-22.5156248 4.791015,0 -1.095703,22.5156248 m -4.060547,6.509766 c -3e-6,-0.544268 0.07161,-1.002601 0.214844,-1.375 0.143226,-0.386715 0.336585,-0.694657 0.580078,-0.923828 0.243486,-0.243485 0.529944,-0.41536 0.859375,-0.515625 0.329422,-0.114578 0.687495,-0.17187 1.074219,-0.171875 0.37239,5e-6 0.723301,0.0573 1.052734,0.171875 0.343743,0.100265 0.637363,0.27214 0.88086,0.515625 0.243481,0.229171 0.436841,0.537113 0.580078,0.923828 0.143221,0.372399 0.214835,0.830732 0.214844,1.375 -9e-6,0.52995 -0.07162,0.988282 -0.214844,1.375 -0.143237,0.372396 -0.336597,0.680339 -0.580078,0.923828 -0.243497,0.243489 -0.537117,0.422526 -0.88086,0.537109 -0.329433,0.114583 -0.680344,0.171875 -1.052734,0.171875 -0.386724,0 -0.744797,-0.05729 -1.074219,-0.171875 -0.329431,-0.114583 -0.615889,-0.29362 -0.859375,-0.537109 -0.243493,-0.243489 -0.436852,-0.551432 -0.580078,-0.923828 -0.143232,-0.386718 -0.214847,-0.84505 -0.214844,-1.375"
         style=""
         id="path5747" />
      <path
         d="m 45.414867,15.906719 -2.599609,0 -1.095703,-22.5156248 4.791016,0 -1.095704,22.5156248 m -4.060546,6.509766 c -4e-6,-0.544268 0.07161,-1.002601 0.214843,-1.375 0.143226,-0.386715 0.336585,-0.694657 0.580078,-0.923828 0.243486,-0.243485 0.529944,-0.41536 0.859375,-0.515625 0.329422,-0.114578 0.687495,-0.17187 1.074219,-0.171875 0.37239,5e-6 0.723301,0.0573 1.052735,0.171875 0.343742,0.100265 0.637362,0.27214 0.880859,0.515625 0.243481,0.229171 0.436841,0.537113 0.580078,0.923828 0.143221,0.372399 0.214835,0.830732 0.214844,1.375 -9e-6,0.52995 -0.07162,0.988282 -0.214844,1.375 -0.143237,0.372396 -0.336597,0.680339 -0.580078,0.923828 -0.243497,0.243489 -0.537117,0.422526 -0.880859,0.537109 -0.329434,0.114583 -0.680345,0.171875 -1.052735,0.171875 -0.386724,0 -0.744797,-0.05729 -1.074219,-0.171875 -0.329431,-0.114583 -0.615889,-0.29362 -0.859375,-0.537109 -0.243493,-0.243489 -0.436852,-0.551432 -0.580078,-0.923828 -0.143232,-0.386718 -0.214847,-0.84505 -0.214843,-1.375"
         style=""
         id="path5749" />
    </g>
  </g>
</svg>
