<?xml version="1.0" encoding="UTF-8" standalone="no"?>
<!-- Created with Inkscape (http://www.inkscape.org/) -->

<svg
   xmlns:dc="http://purl.org/dc/elements/1.1/"
   xmlns:cc="http://creativecommons.org/ns#"
   xmlns:rdf="http://www.w3.org/1999/02/22-rdf-syntax-ns#"
   xmlns:svg="http://www.w3.org/2000/svg"
   xmlns="http://www.w3.org/2000/svg"
   xmlns:sodipodi="http://sodipodi.sourceforge.net/DTD/sodipodi-0.dtd"
   xmlns:inkscape="http://www.inkscape.org/namespaces/inkscape"
   width="48"
   height="48"
   id="svg3103"
   version="1.1"
   inkscape:version="0.48.4 r9939"
   sodipodi:docname="ra1.svg">
  <defs
     id="defs3105" />
  <sodipodi:namedview
     id="base"
     pagecolor="#ffffff"
     bordercolor="#666666"
     borderopacity="1.0"
     inkscape:pageopacity="0.0"
     inkscape:pageshadow="2"
     inkscape:zoom="11.197802"
     inkscape:cx="22.57544"
     inkscape:cy="24.544941"
     inkscape:current-layer="layer1"
     showgrid="true"
     inkscape:grid-bbox="true"
     inkscape:document-units="px"
     inkscape:window-width="1038"
     inkscape:window-height="783"
     inkscape:window-x="411"
     inkscape:window-y="114"
     inkscape:window-maximized="0" />
  <metadata
     id="metadata3108">
    <rdf:RDF>
      <cc:Work
         rdf:about="">
        <dc:format>image/svg+xml</dc:format>
        <dc:type
           rdf:resource="http://purl.org/dc/dcmitype/StillImage" />
        <dc:title></dc:title>
      </cc:Work>
    </rdf:RDF>
  </metadata>
  <g
     id="layer1"
     inkscape:label="Layer 1"
     inkscape:groupmode="layer"
     transform="translate(0,16)">
    <path
       style="fill:none;stroke:#e1e1e1;stroke-opacity:1"
       d="m 23.162917,-14.362368 c -3.103883,0 -5.59375,2.521117 -5.59375,5.6250002 0,0.102101 -0.0054,0.211739 0,0.3125 -0.416962,-0.062208 -0.846968,-0.125 -1.28125,-0.125 -4.509773,0 -8.1784682,3.487232 -8.5312502,7.90624982 -0.1849324,-0.02509 -0.370687,-0.0625 -0.5625,-0.0625 -2.3017555,0 -4.15625,1.85449498 -4.15625,4.15624998 0,2.301755 1.8544945,4.1875 4.15625,4.1875 1.251934,0 2.3610338,-0.563604 3.1250002,-1.4375 1.546023,1.49896 3.64528,2.4375 5.96875,2.4375 0.592876,0 1.190943,-0.0731 1.75,-0.1875 1.689496,3.618338 5.368104,6.125 9.625,6.125 2.985472,0 5.665967,-1.265183 7.59375,-3.25 0.697515,0.213865 1.419909,0.34375 2.1875,0.34375 4.150135,0 7.53125,-3.381115 7.53125,-7.53125 0,-3.89075198 -2.960776,-7.0839328 -6.75,-7.4687498 0.182658,-0.587263 0.28125,-1.227631 0.28125,-1.875 0,-3.452633 -2.797367,-6.2500002 -6.25,-6.2500002 -1.374872,0 -2.624157,0.466555 -3.65625,1.21875 -0.659807,-2.370274 -2.856903,-4.125 -5.4375,-4.125 z"
       id="path4508"
       inkscape:connector-curvature="0" />
    <path
       style="fill:none;stroke:#6af6ff;stroke-width:0.99999994px;stroke-linecap:butt;stroke-linejoin:miter;stroke-opacity:1"
       d="m 28.986982,16.907752 c 0,0 -4.870113,4.136081 -6.492543,6.250242 -1.622431,2.11416 -1.867186,4.306281 -0.490003,4.765036 1.377183,0.458754 3.619138,-1.40168 4.65503,-3.774899 1.035892,-2.373219 2.327516,-7.240379 2.327516,-7.240379 z"
       id="path2984"
       inkscape:connector-curvature="0"
       sodipodi:nodetypes="czzzc" />
    <path
       style="fill:none;stroke:#6af6ff;stroke-width:1px;stroke-linecap:butt;stroke-linejoin:miter;stroke-opacity:1"
       d="m 11.840162,12.302839 c 0,0 -5.0728878,4.302684 -6.7628708,6.502005 -1.689983,2.19932 -1.944929,4.47974 -0.510405,4.956973 1.434525,0.477233 3.769827,-1.458139 4.84885,-3.926953 1.0790228,-2.468813 2.4244258,-7.532025 2.4244258,-7.532025 z"
       id="path2984-3"
       inkscape:connector-curvature="0"
       sodipodi:nodetypes="czzzc" />
    <path
       style="fill:none;stroke:#6af6ff;stroke-width:0.99999994px;stroke-linecap:butt;stroke-linejoin:miter;stroke-opacity:1"
       d="m 19.821065,15.294498 c 0,0 -5.965097,5.035737 -7.952311,7.609758 -1.9872136,2.57402 -2.2869986,5.242959 -0.600174,5.801499 1.686826,0.55854 4.432857,-1.706565 5.701656,-4.595993 1.268799,-2.889428 2.850829,-8.815264 2.850829,-8.815264 z"
       id="path2984-6"
       inkscape:connector-curvature="0"
       sodipodi:nodetypes="czzzc" />
    <path
       style="fill:none;stroke:#6af6ff;stroke-width:0.99999994px;stroke-linecap:butt;stroke-linejoin:miter;stroke-opacity:1"
       d="m 40.725283,14.892634 c 0,0 -5.965097,5.035737 -7.952311,7.609758 -1.987214,2.57402 -2.286999,5.242959 -0.600174,5.801499 1.686826,0.55854 4.432857,-1.706565 5.701656,-4.595993 1.268799,-2.889428 2.850829,-8.815264 2.850829,-8.815264 z"
       id="path2984-6-4"
       inkscape:connector-curvature="0"
       sodipodi:nodetypes="czzzc" />
  </g>
</svg>
