<?xml version="1.0" encoding="UTF-8" standalone="no"?>
<!-- Created with Inkscape (http://www.inkscape.org/) -->

<svg
   xmlns:dc="http://purl.org/dc/elements/1.1/"
   xmlns:cc="http://creativecommons.org/ns#"
   xmlns:rdf="http://www.w3.org/1999/02/22-rdf-syntax-ns#"
   xmlns:svg="http://www.w3.org/2000/svg"
   xmlns="http://www.w3.org/2000/svg"
   xmlns:sodipodi="http://sodipodi.sourceforge.net/DTD/sodipodi-0.dtd"
   xmlns:inkscape="http://www.inkscape.org/namespaces/inkscape"
   width="48"
   height="48"
   id="svg3103"
   version="1.1"
   inkscape:version="0.48.4 r9939"
   sodipodi:docname="ip.svg">
  <defs
     id="defs3105" />
  <sodipodi:namedview
     id="base"
     pagecolor="#19279b"
     bordercolor="#666666"
     borderopacity="1.0"
     inkscape:pageopacity="0"
     inkscape:pageshadow="2"
     inkscape:zoom="11.197802"
     inkscape:cx="22.932652"
     inkscape:cy="11.106813"
     inkscape:current-layer="layer1"
     showgrid="true"
     inkscape:grid-bbox="true"
     inkscape:document-units="px"
     inkscape:window-width="1038"
     inkscape:window-height="783"
     inkscape:window-x="396"
     inkscape:window-y="122"
     inkscape:window-maximized="0" />
  <metadata
     id="metadata3108">
    <rdf:RDF>
      <cc:Work
         rdf:about="">
        <dc:format>image/svg+xml</dc:format>
        <dc:type
           rdf:resource="http://purl.org/dc/dcmitype/StillImage" />
        <dc:title></dc:title>
      </cc:Work>
    </rdf:RDF>
  </metadata>
  <g
     id="layer1"
     inkscape:label="Layer 1"
     inkscape:groupmode="layer"
     transform="translate(0,16)">
    <path
       style="fill:none;stroke:#e1e1e1;stroke-opacity:1"
       d="m 23.162917,-14.362368 c -3.103883,0 -5.59375,2.521117 -5.59375,5.6250002 0,0.102101 -0.0054,0.211739 0,0.3125 -0.416962,-0.062208 -0.846968,-0.125 -1.28125,-0.125 -4.509773,0 -8.1784682,3.487232 -8.5312502,7.90624982 -0.1849324,-0.02509 -0.370687,-0.0625 -0.5625,-0.0625 -2.3017555,0 -4.15625,1.85449498 -4.15625,4.15624998 0,2.301755 1.8544945,4.1875 4.15625,4.1875 1.251934,0 2.3610338,-0.563604 3.1250002,-1.4375 1.546023,1.49896 3.64528,2.4375 5.96875,2.4375 0.592876,0 1.190943,-0.0731 1.75,-0.1875 1.689496,3.618338 5.368104,6.125 9.625,6.125 2.985472,0 5.665967,-1.265183 7.59375,-3.25 0.697515,0.213865 1.419909,0.34375 2.1875,0.34375 4.150135,0 7.53125,-3.381115 7.53125,-7.53125 0,-3.89075198 -2.960776,-7.0839328 -6.75,-7.4687498 0.182658,-0.587263 0.28125,-1.227631 0.28125,-1.875 0,-3.452633 -2.797367,-6.2500002 -6.25,-6.2500002 -1.374872,0 -2.624157,0.466555 -3.65625,1.21875 -0.659807,-2.370274 -2.856903,-4.125 -5.4375,-4.125 z"
       id="path4508"
       inkscape:connector-curvature="0" />
    <path
       sodipodi:type="arc"
       style="fill:none;stroke:#ffffff;stroke-width:1;stroke-linecap:round;stroke-linejoin:miter;stroke-miterlimit:4;stroke-opacity:1;stroke-dasharray:none;stroke-dashoffset:0"
       id="path4055"
       sodipodi:cx="8.3052015"
       sodipodi:cy="42.016682"
       sodipodi:rx="2.5897939"
       sodipodi:ry="2.5897939"
       d="m 10.894995,42.016682 c 0,1.430303 -1.1594898,2.589794 -2.5897935,2.589794 -1.4303037,0 -2.5897939,-1.159491 -2.5897939,-2.589794 0,-1.430304 1.1594902,-2.589794 2.5897939,-2.589794 1.4303037,0 2.5897935,1.15949 2.5897935,2.589794 z"
       transform="translate(-0.53581944,-16.625123)" />
    <path
       style="fill:none;stroke:#ffffff;stroke-width:1px;stroke-linecap:butt;stroke-linejoin:miter;stroke-opacity:1"
       d="m 12.770363,15.746811 -2.679097,4.822375"
       id="path4057"
       inkscape:connector-curvature="0"
       sodipodi:nodetypes="cc" />
    <path
       sodipodi:type="arc"
       style="fill:none;stroke:#ffffff;stroke-width:1;stroke-linecap:round;stroke-linejoin:miter;stroke-miterlimit:4;stroke-opacity:1;stroke-dasharray:none;stroke-dashoffset:0"
       id="path4055-3-9"
       sodipodi:cx="8.3052015"
       sodipodi:cy="42.016682"
       sodipodi:rx="2.5897939"
       sodipodi:ry="2.5897939"
       d="m 10.894995,42.016682 c 0,1.430303 -1.1594898,2.589794 -2.5897935,2.589794 -1.4303037,0 -2.5897939,-1.159491 -2.5897939,-2.589794 0,-1.430304 1.1594902,-2.589794 2.5897939,-2.589794 1.4303037,0 2.5897935,1.15949 2.5897935,2.589794 z"
       transform="translate(22.883954,-15.888371)" />
    <path
       style="fill:none;stroke:#ffffff;stroke-width:1px;stroke-linecap:butt;stroke-linejoin:miter;stroke-opacity:1"
       d="m 36.592002,16.885427 -2.679097,4.822375"
       id="path4057-8-4"
       inkscape:connector-curvature="0"
       sodipodi:nodetypes="cc" />
    <path
       style="fill:none;stroke:#6af6ff;stroke-width:1px;stroke-linecap:butt;stroke-linejoin:miter;stroke-opacity:1"
       d="m 25.089902,17.214518 c 0,0 -5.072888,4.302684 -6.762871,6.502005 -1.689983,2.19932 -1.944929,4.47974 -0.510405,4.956973 1.434525,0.477233 3.769827,-1.458139 4.84885,-3.926953 1.079023,-2.468813 2.424426,-7.532025 2.424426,-7.532025 z"
       id="path2984-3"
       inkscape:connector-curvature="0"
       sodipodi:nodetypes="czzzc" />
  </g>
</svg>
