<?xml version="1.0" encoding="UTF-8" standalone="no"?>
<!-- Created with Inkscape (http://www.inkscape.org/) -->

<svg
   xmlns:dc="http://purl.org/dc/elements/1.1/"
   xmlns:cc="http://creativecommons.org/ns#"
   xmlns:rdf="http://www.w3.org/1999/02/22-rdf-syntax-ns#"
   xmlns:svg="http://www.w3.org/2000/svg"
   xmlns="http://www.w3.org/2000/svg"
   xmlns:sodipodi="http://sodipodi.sourceforge.net/DTD/sodipodi-0.dtd"
   xmlns:inkscape="http://www.inkscape.org/namespaces/inkscape"
   width="48"
   height="48"
   id="svg3103"
   version="1.1"
   inkscape:version="0.48.2 r9819"
   sodipodi:docname="UnknownWeather.svg">
  <defs
     id="defs3105" />
  <sodipodi:namedview
     id="base"
     pagecolor="#ffffff"
     bordercolor="#666666"
     borderopacity="1.0"
     inkscape:pageopacity="0.0"
     inkscape:pageshadow="2"
     inkscape:zoom="7.9180417"
     inkscape:cx="7.9454103"
     inkscape:cy="25.50987"
     inkscape:current-layer="layer1"
     showgrid="true"
     inkscape:grid-bbox="true"
     inkscape:document-units="px"
     inkscape:window-width="1029"
     inkscape:window-height="688"
     inkscape:window-x="59"
     inkscape:window-y="139"
     inkscape:window-maximized="0" />
  <metadata
     id="metadata3108">
    <rdf:RDF>
      <cc:Work
         rdf:about="">
        <dc:format>image/svg+xml</dc:format>
        <dc:type
           rdf:resource="http://purl.org/dc/dcmitype/StillImage" />
        <dc:title></dc:title>
      </cc:Work>
    </rdf:RDF>
  </metadata>
  <g
     id="layer1"
     inkscape:label="Layer 1"
     inkscape:groupmode="layer"
     transform="translate(0,16)">
    <g
       style="font-size:40px;font-style:normal;font-weight:normal;line-height:125%;letter-spacing:0px;word-spacing:0px;fill:#000000;fill-opacity:1;stroke:none;font-family:Sans"
       id="text4511">
      <path
         d="m 20.644985,16.682968 3.964844,0 0,4.960938 -3.964844,0 0,-4.960938 m 3.847656,-2.871094 -3.730468,0 0,-3.007812 c -8e-6,-1.3150921 0.182283,-2.3958202 0.546875,-3.2421876 0.364574,-0.8463392 1.132803,-1.8294112 2.304687,-2.9492188 l 1.757813,-1.7382812 c 0.742174,-0.6900847 1.276028,-1.3411257 1.601562,-1.95312501 0.338528,-0.61195783 0.507798,-1.23695721 0.507813,-1.875 -1.5e-5,-1.15883039 -0.429702,-2.09632949 -1.289063,-2.81249999 -0.846366,-0.7161197 -1.972667,-1.0741923 -3.378906,-1.0742188 -1.028655,2.65e-5 -2.128914,0.2278909 -3.300781,0.6835938 -1.15886,0.4557545 -2.369796,1.1198163 -3.632813,1.9921875 l 0,-3.671875 c 1.223954,-0.7421593 2.460932,-1.2955442 3.710938,-1.6601563 1.263013,-0.3645538 2.565095,-0.5468453 3.90625,-0.546875 2.39582,2.97e-5 4.316391,0.6315395 5.761718,1.8945313 1.458316,1.2630474 2.187482,2.9297124 2.1875,5 -1.8e-5,0.98960513 -0.234393,1.9336146 -0.703125,2.8320312 -0.468767,0.8854358 -1.289078,1.8880389 -2.460937,3.0078125 l -1.71875,1.6796875 c -0.611992,0.6119939 -1.04819,1.0937642 -1.308594,1.4453125 -0.247408,0.3385552 -0.423189,0.6705861 -0.527344,0.9960938 -0.07814,0.27345 -0.13673,0.605481 -0.175781,0.9960937 -0.03907,0.3906369 -0.05861,0.9244899 -0.05859,1.6015629 l 0,2.402343"
         style=""
         id="path4535" />
    </g>
  </g>
</svg>
